<svg width="794" height="525" viewBox="0 0 794 525" fill="none" xmlns="http://www.w3.org/2000/svg">
<path d="M776.231 68.4958L779.147 68.8627C783.209 69.1046 787.168 70.8695 789.928 74.2789C795.126 80.7298 794.13 90.2121 787.679 95.4096L787.562 95.4043L782.811 99.2945L777.559 98.7042C775.078 100.756 771.53 104.278 766.635 109.353C756.41 119.96 748.298 128.318 742.399 134.178C735.938 140.595 727.902 147.215 718.503 154.092C711.651 159.103 704.98 166.806 698.891 177.837C695.508 183.965 692.936 188.761 691.197 192.269C690.332 194.015 689.774 195.354 689.373 196.292C688.899 197.397 688.857 197.426 688.995 196.861C688.452 199.105 687.554 201.005 687.127 201.82C686.544 202.934 685.811 204.093 685.095 205.247C683.647 207.582 681.678 210.506 679.306 213.9C675.594 219.212 670.54 226.067 664.297 234.452C664.373 235.629 664.56 236.808 664.371 237.975C663.4 243.845 659.429 247.262 658.397 248.144C657.118 249.235 655.424 249.794 653.943 250.64C653.429 251.475 652.808 252.49 652.166 253.609C651.963 253.963 651.732 254.294 651.533 254.636C647.113 267.079 641.187 279.6 633.763 292.072C629.798 298.725 624.058 306.162 615.619 309.315C605.029 313.263 595.64 308.856 589.518 302.851C580.338 293.825 573.523 280.843 568.336 265.525C563.703 251.83 558.783 240.027 553.636 230.134C546.879 217.141 543.715 203.232 544.257 188.651C544.657 177.941 543.803 165.978 541.429 152.744C540.41 147.064 538.892 144.626 538.198 143.799C538.099 143.682 538.025 143.599 537.975 143.554C537.978 143.554 537.815 143.43 537.395 143.411C535.352 143.337 534.407 143.766 533.962 144.076C533.375 144.489 532.142 145.728 530.813 148.86C525.32 161.784 515.503 173.402 502.709 183.95C492.258 192.571 483.461 202.533 476.137 213.714C467.515 226.875 457.77 239.242 447.001 250.869C438.024 260.559 430.961 271.644 425.783 284.16C419.124 300.266 409.376 314.358 396.658 326.243C386.699 335.54 378.673 346.014 372.592 357.645C365.151 371.882 356.258 384.898 345.84 396.55C341.163 401.782 337.556 405.91 335.066 409.083C332.299 412.609 331.608 413.917 331.687 413.739C331.155 414.939 329.583 418.44 325.845 420.982C323.685 422.449 320.71 423.582 317.278 423.643C313.932 423.691 311.121 422.645 309.163 421.515C305.736 419.519 303.884 416.69 303.214 415.614C302.341 414.207 301.734 412.768 301.282 411.656C299.577 407.457 297.968 401.218 296.454 393.958C293.543 379.986 289.702 366.26 284.946 352.847C279.779 338.273 275.479 323.435 271.948 308.384C269.073 296.128 264.904 284.234 259.85 272.525C257.144 276.683 253.991 281.385 250.641 286.771C242.625 299.653 233.386 311.247 222.792 321.403C212.84 330.942 201.902 340.5 190.165 350.188C178.664 359.682 167.106 369.187 155.441 378.644C143.827 388.058 134.434 395.743 127.299 401.649C120.16 407.558 110.873 415.316 99.4971 424.905C88.1536 434.468 76.8046 444.182 65.5661 453.983C56.0018 462.329 43.4194 478.414 27.7787 503.415L27.1456 504.442L26.4007 505.346L26.2836 505.341C20.8223 511.57 11.3346 512.188 5.10532 506.726C-0.513227 501.782 -1.32279 493.736 2.57092 487.607L2.3421 487.48C18.3304 461.923 32.908 442.761 45.945 431.391C57.2988 421.489 68.6644 411.634 80.1261 401.972C91.5412 392.35 100.928 384.602 108.167 378.61C115.417 372.609 124.887 364.838 136.554 355.381C148.163 345.97 159.712 336.483 171.155 327.037C182.364 317.784 192.611 308.653 201.958 299.694C210.664 291.349 218.445 281.805 225.199 270.953C232.623 259.018 238.776 249.569 243.602 242.813L248.168 237.858C250.114 236.284 252.544 234.885 255.495 234.085C262.046 232.321 267.865 234.381 271.783 237.053C275.38 239.514 278.116 242.83 280.069 245.758C282.117 248.829 283.931 252.462 285.689 256.336C292.319 270.959 297.489 286.035 301.119 301.496C304.392 315.45 308.418 329.237 313.206 342.75C317.148 353.866 320.259 365.286 323.043 376.747C323.132 376.647 323.315 376.629 323.405 376.528C332.108 366.793 339.673 355.887 346.006 343.769C353.701 329.048 363.815 315.865 376.185 304.315C385.759 295.366 393.011 284.841 398.032 272.695C404.54 256.958 413.502 242.857 424.932 230.512C434.584 220.093 443.258 208.964 450.961 197.204C459.962 183.463 470.932 171.325 483.7 160.799C494.085 152.233 500.156 144.28 503.189 137.166C506.11 130.286 510.527 123.926 516.895 119.488C523.388 114.975 530.824 113.156 538.403 113.426C547.342 113.747 555.295 117.514 561.131 124.428C566.524 130.827 569.368 139.108 570.876 147.511C573.553 162.447 574.73 176.563 574.237 189.777C573.891 199.119 575.922 207.905 580.305 216.329C586.3 227.857 591.803 241.112 596.809 255.907C600.16 265.797 603.991 272.562 607.454 277.271C607.579 277.068 607.818 276.926 607.948 276.707C612.068 269.787 615.406 262.857 618.382 256.182C618.076 254.418 617.828 253.028 617.849 252.404C617.895 251.106 618.082 249.878 618.243 248.903C619.453 241.551 623.184 235.87 628.176 231.64C628.401 231.116 628.616 230.616 628.83 230.145C629.546 228.57 630.565 226.522 631.773 224.765C632.308 223.988 633.582 222.256 635.593 220.715C636.045 220.37 636.892 220.048 637.876 219.528C645.12 209.842 650.845 202.298 654.747 196.715C656.987 193.509 658.627 191.084 659.653 189.429C660.141 188.641 660.422 188.171 660.542 187.945C660.407 188.244 660.09 188.894 659.871 189.791C660.666 186.518 662.609 182.482 664.351 178.968C666.374 174.885 669.091 169.573 672.571 163.269C680.207 149.44 689.537 138.124 700.712 129.94C709.334 123.635 716.103 117.866 721.197 112.805C726.867 107.172 734.766 99.0962 744.939 88.5433C750.175 83.1111 754.86 78.6963 758.666 75.5584C760.528 74.0266 762.621 72.468 764.727 71.2584C766.171 70.4305 770.447 68.0404 775.88 68.4799L776.231 68.4958ZM779.139 97.4855L779.373 97.4962C779.536 97.4183 779.601 97.2823 779.618 97.2726C779.618 97.2726 779.423 97.2835 779.139 97.4855Z" fill="black"/>
<path d="M670.557 5.00066C686.46 -3.92542 705.23 -0.397632 717.768 11.5772L723.559 16.5909L725.599 20.4842L726.49 21.7916L727.065 23.0846L728.229 25.3545C736.908 43.7571 730.751 60.8431 724.281 70.4681C723.259 71.9775 717.919 79.8705 707.789 84.9228C701.671 87.9665 692.37 90.7378 681.339 88.4736C670.357 86.1798 662.791 80.0524 658.508 75.0851C651.381 66.7841 649.629 57.7775 649.24 55.9774C648.518 52.6272 648.151 49.6133 648.033 47.6876C647.876 45.1052 647.827 40.4775 648.922 35.0587C649.523 32.1029 651.722 26.1323 656.277 19.5558C658.439 15.9941 661.352 13.2358 664.609 10.432C665.064 10.0803 665.148 9.23647 665.629 8.89458L666.592 8.62153C667.999 7.56852 668.984 5.88486 670.557 5.00066ZM671.41 76.9375C672.993 77.8132 674.747 79.2614 676.971 80.0404L677.919 80.0834C675.618 79.2204 673.531 78.2109 671.41 76.9375ZM666.18 73.5329L665.836 74.1507C666.023 74.3062 666.651 74.1912 667.086 74.5241C666.734 74.2482 666.524 73.8213 666.18 73.5329Z" fill="black"/>
</svg>
